<svg width="324" height="50" viewBox="0 0 324 50" fill="none" xmlns="http://www.w3.org/2000/svg">
<path d="M51.0088 45.3929C48.3898 43.966 46.2366 41.8157 44.8063 39.1985C43.244 36.2949 42.4635 33.035 42.5414 29.7388C42.4647 26.4401 43.2451 23.1779 44.8063 20.271C46.2347 17.6504 48.3881 15.497 51.0088 14.0686C53.7486 12.6022 56.8171 11.8585 59.9243 11.9078C61.9665 11.8818 64.0017 12.1513 65.9667 12.7081C67.8141 13.2599 69.5938 14.017 71.2728 14.965C71.6167 15.1416 71.9024 15.4138 72.0955 15.7488C72.2885 16.0839 72.3808 16.4675 72.3612 16.8537C72.3605 17.3483 72.1649 17.8227 71.817 18.1742C71.5086 18.4617 71.1213 18.6504 70.7049 18.716C70.2884 18.7816 69.8618 18.7212 69.48 18.5424C68.1129 17.8149 66.6757 17.2277 65.1904 16.7897C63.625 16.3701 62.0088 16.1708 60.3885 16.1974C57.8493 16.1191 55.336 16.7274 53.1136 17.9581C51.1627 19.0739 49.5884 20.7456 48.5918 22.76C47.5551 24.9211 47.0371 27.2943 47.0792 29.6908C47.038 32.0871 47.5559 34.4602 48.5918 36.6215C49.5908 38.6342 51.1645 40.3053 53.1136 41.4234C55.336 42.6541 57.8493 43.2624 60.3885 43.1841C62.0086 43.2067 63.6243 43.0075 65.1904 42.5918C66.671 42.1586 68.1032 41.5739 69.464 40.8471C69.7436 40.7127 70.0502 40.6442 70.3604 40.6471C70.6255 40.636 70.89 40.6792 71.1378 40.7742C71.3855 40.8692 71.6112 41.0138 71.801 41.1993C71.9778 41.3734 72.1172 41.5817 72.2108 41.8115C72.3044 42.0413 72.3501 42.2877 72.3452 42.5358C72.3779 42.9285 72.2935 43.3221 72.1027 43.6668C71.9118 44.0115 71.623 44.2919 71.2728 44.4726C69.6001 45.4302 67.8258 46.1979 65.9827 46.7615C64.0177 47.3182 61.9825 47.5878 59.9403 47.5618C56.827 47.6113 53.7526 46.8648 51.0088 45.3929Z" fill="white"/>
<path d="M81.3088 46.1374C81.0139 45.8511 80.7808 45.5074 80.6239 45.1275C80.467 44.7476 80.3896 44.3395 80.3964 43.9286V14.3889C80.3926 14.0932 80.4472 13.7995 80.5571 13.5248C80.6669 13.2502 80.8299 12.9999 81.0367 12.7883C81.2426 12.5723 81.4913 12.4017 81.7669 12.2873C82.0425 12.173 82.339 12.1173 82.6373 12.1241C83.2338 12.1304 83.8038 12.3718 84.2233 12.7959C84.6429 13.2199 84.8782 13.7924 84.8782 14.3889V42.536H101.125C101.732 42.5296 102.318 42.7644 102.753 43.1889C103.188 43.6135 103.437 44.1931 103.445 44.8009C103.454 45.1002 103.398 45.3977 103.282 45.6738C103.166 45.9498 102.993 46.1979 102.773 46.4015C102.563 46.6101 102.313 46.7748 102.038 46.8861C101.763 46.9973 101.469 47.053 101.173 47.0498H83.5657C83.1467 47.0628 82.7297 46.9884 82.3411 46.8313C81.9525 46.6742 81.601 46.4379 81.3088 46.1374Z" fill="white"/>
<path d="M110.888 46.4016C110.678 46.1928 110.512 45.943 110.402 45.6677C110.292 45.3924 110.24 45.0974 110.248 44.801V14.6691C110.244 14.0724 110.474 13.4977 110.888 13.0685C111.094 12.8525 111.343 12.6819 111.618 12.5675C111.894 12.4531 112.19 12.3975 112.489 12.4042H132.409C132.69 12.4021 132.969 12.4559 133.229 12.5626C133.489 12.6692 133.726 12.8265 133.924 13.0254C134.123 13.2242 134.281 13.4606 134.387 13.7208C134.494 13.9811 134.548 14.2599 134.545 14.5411C134.552 14.8191 134.499 15.0953 134.392 15.3517C134.284 15.6081 134.124 15.8391 133.921 16.0297C133.515 16.4192 132.971 16.6322 132.409 16.6219H114.802V27.5862H130.648C130.929 27.5812 131.209 27.6341 131.469 27.7414C131.729 27.8488 131.965 28.0085 132.161 28.2105C132.363 28.406 132.522 28.6414 132.628 28.9019C132.734 29.1623 132.785 29.442 132.777 29.7231C132.774 30.0027 132.712 30.2785 132.595 30.5323C132.477 30.7862 132.308 31.0123 132.097 31.1956C131.897 31.3911 131.66 31.5448 131.401 31.6479C131.141 31.7509 130.863 31.8012 130.584 31.7959H114.738V42.8322H132.345C132.626 42.8312 132.904 42.8857 133.164 42.9927C133.423 43.0997 133.659 43.2571 133.858 43.4557C134.057 43.6544 134.214 43.8903 134.321 44.1501C134.428 44.4098 134.483 44.6881 134.481 44.9691C134.489 45.2484 134.437 45.5261 134.329 45.784C134.222 46.0419 134.061 46.2742 133.857 46.4656C133.451 46.8552 132.907 47.0682 132.345 47.0579H112.481C112.185 47.0635 111.89 47.0082 111.616 46.8953C111.342 46.7824 111.094 46.6144 110.888 46.4016Z" fill="white"/>
<path d="M141.468 46.6575C141.261 46.4467 141.099 46.1962 140.992 45.9211C140.885 45.646 140.834 45.352 140.844 45.0569C140.861 44.7131 140.945 44.3759 141.092 44.0645L153.761 14.1567C154.008 13.5857 154.389 13.0831 154.873 12.6922C155.381 12.3059 156.005 12.1053 156.642 12.1239H157.138C157.773 12.1052 158.395 12.3059 158.899 12.6922C159.385 13.0826 159.77 13.5851 160.019 14.1567L172.688 44.0805C172.832 44.3932 172.916 44.7296 172.937 45.0729C172.946 45.368 172.896 45.662 172.788 45.9371C172.681 46.2123 172.519 46.4628 172.312 46.6735C172.105 46.887 171.856 47.0549 171.58 47.1666C171.305 47.2782 171.009 47.331 170.712 47.3218C170.262 47.3281 169.821 47.1969 169.447 46.9456C169.064 46.6985 168.761 46.3454 168.575 45.9292L165.374 38.1822H148.487L145.286 45.9292C145.099 46.3429 144.8 46.6953 144.421 46.9456C144.045 47.1966 143.601 47.3277 143.149 47.3218C142.837 47.3417 142.525 47.2925 142.234 47.1776C141.944 47.0628 141.682 46.8852 141.468 46.6575ZM150.184 34.0446H163.597L156.906 17.9022L150.184 34.0446Z" fill="white"/>
<path d="M182.124 46.6577C181.911 46.4504 181.744 46.2011 181.632 45.9255C181.52 45.65 181.467 45.3543 181.476 45.0571V15.4134C181.471 14.9856 181.553 14.5612 181.715 14.1654C181.877 13.7695 182.117 13.4101 182.42 13.1085C182.712 12.7969 183.065 12.5497 183.458 12.3829C183.851 12.2161 184.275 12.1334 184.701 12.1401H185.35C185.898 12.1431 186.437 12.2803 186.919 12.5398C187.402 12.7993 187.814 13.1732 188.119 13.6287L207.246 41.2476V14.389C207.241 13.7906 207.475 13.2149 207.894 12.7884C208.1 12.572 208.349 12.4011 208.624 12.2867C208.9 12.1723 209.197 12.1169 209.495 12.1241C210.089 12.1366 210.654 12.3803 211.071 12.8032C211.488 13.2262 211.724 13.7951 211.728 14.389V44.0807C211.74 44.5141 211.66 44.9452 211.493 45.3454C211.326 45.7455 211.076 46.1056 210.76 46.4016C210.457 46.706 210.096 46.9465 209.699 47.1088C209.302 47.271 208.876 47.3517 208.447 47.346H207.854C207.334 47.3518 206.821 47.2222 206.366 46.9698C205.917 46.7369 205.525 46.4059 205.221 46.0015L186.014 18.2385V45.0731C186.022 45.3724 185.966 45.6699 185.85 45.946C185.734 46.222 185.561 46.4701 185.342 46.6737C185.131 46.8823 184.881 47.047 184.606 47.1582C184.331 47.2695 184.037 47.3252 183.741 47.322C183.44 47.331 183.14 47.2764 182.862 47.162C182.583 47.0475 182.332 46.8757 182.124 46.6577Z" fill="white"/>
<path d="M228.991 45.393C226.37 43.9662 224.214 41.816 222.78 39.1986C221.222 36.2936 220.442 33.0347 220.516 29.7388C220.443 26.4406 221.223 23.1794 222.78 20.2711C224.212 17.6499 226.368 15.4965 228.991 14.0687C231.73 12.6016 234.799 11.8578 237.906 11.9078C239.946 11.8818 241.978 12.1514 243.941 12.7081C245.784 13.2671 247.559 14.0322 249.231 14.989C249.575 15.1657 249.86 15.4379 250.054 15.7729C250.247 16.108 250.339 16.4916 250.319 16.8778C250.321 17.123 250.273 17.366 250.18 17.5927C250.086 17.8194 249.949 18.0253 249.775 18.1983C249.588 18.3886 249.363 18.5375 249.115 18.6354C248.867 18.7333 248.601 18.778 248.334 18.7665C248.024 18.7714 247.717 18.7029 247.438 18.5664C246.079 17.8332 244.65 17.238 243.172 16.7897C241.607 16.3712 239.991 16.1719 238.371 16.1975C235.829 16.1201 233.313 16.7283 231.088 17.9582C229.139 19.0744 227.568 20.7463 226.574 22.7601C225.531 24.9192 225.01 27.2933 225.053 29.6908C225.011 32.0882 225.532 34.4622 226.574 36.6215C227.57 38.6337 229.141 40.3049 231.088 41.4234C233.313 42.6534 235.829 43.2615 238.371 43.1841C239.991 43.2057 241.606 43.0065 243.172 42.5919C244.65 42.1571 246.079 41.5725 247.438 40.8472C247.718 40.7143 248.024 40.646 248.334 40.6471C248.6 40.6346 248.865 40.6772 249.113 40.7722C249.361 40.8673 249.586 41.0127 249.775 41.1993C249.953 41.3723 250.094 41.5804 250.188 41.8104C250.281 42.0405 250.326 42.2875 250.319 42.5359C250.341 42.9224 250.249 43.3068 250.056 43.6423C249.863 43.9777 249.576 44.2495 249.231 44.4246C247.559 45.3837 245.784 46.1515 243.941 46.7135C241.978 47.2703 239.946 47.5398 237.906 47.5138C234.803 47.5761 231.734 46.8462 228.991 45.393Z" fill="white"/>
<path d="M256.658 46.6575C256.451 46.4468 256.289 46.1963 256.182 45.9212C256.074 45.646 256.024 45.352 256.033 45.0569C256.05 44.7131 256.135 44.3759 256.281 44.0645L268.95 14.1728C269.2 13.6012 269.585 13.0986 270.071 12.7082C270.575 12.3219 271.197 12.1212 271.832 12.14H272.328C272.963 12.1212 273.584 12.3219 274.088 12.7082C274.575 13.0986 274.959 13.6012 275.209 14.1728L287.878 44.0805C288.021 44.3932 288.105 44.7297 288.126 45.0729C288.136 45.368 288.085 45.6621 287.978 45.9372C287.871 46.2123 287.709 46.4628 287.502 46.6735C287.295 46.887 287.045 47.0549 286.77 47.1666C286.494 47.2782 286.198 47.3311 285.901 47.3218C285.451 47.3282 285.01 47.1969 284.637 46.9456C284.256 46.698 283.955 46.3448 283.772 45.9293L280.571 38.1822H263.684L260.483 45.9293C260.3 46.3448 260 46.698 259.619 46.9456C259.245 47.1955 258.804 47.3266 258.354 47.3218C258.04 47.3435 257.725 47.2952 257.431 47.1804C257.138 47.0655 256.874 46.8869 256.658 46.6575ZM265.373 34.0446H278.786L272.08 17.9022L265.373 34.0446Z" fill="white"/>
<path d="M297.314 46.6575C297.101 46.4502 296.933 46.2009 296.821 45.9253C296.71 45.6498 296.657 45.354 296.665 45.0569V14.6449C296.661 14.0465 296.894 13.4708 297.314 13.0443C297.52 12.8283 297.768 12.6577 298.044 12.5433C298.32 12.4289 298.616 12.3733 298.914 12.38H310.487C314.985 12.38 318.362 13.3057 320.619 15.1571C321.709 16.0303 322.582 17.1449 323.168 18.4129C323.754 19.6809 324.038 21.0677 323.996 22.464C324.011 24.4031 323.43 26.3 322.332 27.8981C321.157 29.5872 319.453 30.8374 317.49 31.4515C318.615 31.7176 319.655 32.2657 320.51 33.0441C321.365 33.8225 322.009 34.8057 322.38 35.9013C323.234 38.0937 323.681 40.4232 323.7 42.776V45.0649C323.702 45.3594 323.646 45.6513 323.534 45.9237C323.422 46.1961 323.257 46.4435 323.048 46.6514C322.839 46.8593 322.591 47.0235 322.319 47.1345C322.046 47.2454 321.754 47.301 321.459 47.2978C321.154 47.3123 320.849 47.2644 320.563 47.1571C320.276 47.0498 320.015 46.8852 319.795 46.6735C319.589 46.4623 319.428 46.2116 319.322 45.9364C319.216 45.6613 319.167 45.3675 319.178 45.0729V43.5843C319.188 42.039 319.038 40.4969 318.73 38.9825C318.413 37.5332 317.666 36.2136 316.585 35.197C315.46 34.0872 313.755 33.5323 311.471 33.5323H301.187V45.0569C301.195 45.3561 301.14 45.6537 301.024 45.9297C300.908 46.2057 300.734 46.4539 300.515 46.6575C300.305 46.8664 300.055 47.0313 299.78 47.1426C299.505 47.2539 299.211 47.3094 298.914 47.3058C298.617 47.3136 298.322 47.26 298.046 47.1485C297.771 47.0369 297.522 46.8698 297.314 46.6575ZM310.175 29.2747C313.024 29.2747 315.286 28.7118 316.961 27.586C317.764 27.0757 318.417 26.3634 318.857 25.5205C319.297 24.6776 319.507 23.7339 319.466 22.7841C319.512 21.9032 319.338 21.0247 318.961 20.2272C318.584 19.4298 318.015 18.7382 317.306 18.2143C315.865 17.1579 313.408 16.6137 309.927 16.6137H301.187V29.2747H310.175Z" fill="white"/>
<path d="M13.0817 40.6232C11.153 39.5188 9.9925 37.1978 9.74441 34.8449C9.58721 32.4885 9.97612 30.1277 10.8809 27.9462C11.6647 25.9645 12.5625 24.0298 13.5699 22.1519L19.6603 10.2272C20.551 12.6554 21.7135 14.9751 23.1257 17.142C24.7134 19.675 26.0535 22.3551 27.1272 25.1451C29.048 30.5472 28.8799 36.3495 25.9188 41.2634C20.9728 49.4587 7.39948 48.8824 3.3659 39.9989C1.70124 36.3255 1.71725 31.7557 2.56558 27.8582C3.69403 22.5601 6.86327 18.2064 9.26421 13.5325C11.2116 9.74972 13.0417 5.90554 14.7544 2" stroke="white" stroke-width="4" stroke-miterlimit="10" stroke-linecap="round"/>
</svg>
