<svg width="35" height="35" viewBox="0 0 35 35" fill="none" xmlns="http://www.w3.org/2000/svg">
<path d="M17.5001 16.0417C18.6538 16.0417 19.7816 15.6995 20.7409 15.0586C21.7002 14.4176 22.4479 13.5066 22.8894 12.4407C23.3309 11.3748 23.4464 10.2019 23.2213 9.07031C22.9962 7.93875 22.4407 6.89935 21.6249 6.08355C20.8091 5.26774 19.7697 4.71217 18.6381 4.48709C17.5066 4.26201 16.3337 4.37753 15.2678 4.81904C14.2019 5.26055 13.2908 6.00822 12.6498 6.96751C12.0089 7.9268 11.6667 9.05461 11.6667 10.2083C11.6667 11.7554 12.2813 13.2392 13.3753 14.3331C14.4693 15.4271 15.953 16.0417 17.5001 16.0417ZM17.5001 7.29167C18.0769 7.29167 18.6409 7.46273 19.1205 7.78322C19.6001 8.1037 19.974 8.55922 20.1947 9.09218C20.4155 9.62513 20.4732 10.2116 20.3607 10.7773C20.2482 11.3431 19.9704 11.8628 19.5625 12.2707C19.1546 12.6786 18.6349 12.9564 18.0691 13.069C17.5033 13.1815 16.9169 13.1237 16.3839 12.903C15.851 12.6822 15.3954 12.3084 15.075 11.8287C14.7545 11.3491 14.5834 10.7852 14.5834 10.2083C14.5834 9.43479 14.8907 8.69292 15.4377 8.14594C15.9847 7.59896 16.7265 7.29167 17.5001 7.29167Z" fill="white"/>
<path d="M17.5001 18.958C14.7927 18.958 12.1961 20.0335 10.2817 21.948C8.36727 23.8624 7.29175 26.4589 7.29175 29.1663C7.29175 29.5531 7.44539 29.924 7.71888 30.1975C7.99237 30.471 8.36331 30.6247 8.75008 30.6247C9.13686 30.6247 9.50779 30.471 9.78128 30.1975C10.0548 29.924 10.2084 29.5531 10.2084 29.1663C10.2084 27.2325 10.9766 25.3778 12.3441 24.0104C13.7115 22.6429 15.5662 21.8747 17.5001 21.8747C19.434 21.8747 21.2886 22.6429 22.6561 24.0104C24.0235 25.3778 24.7917 27.2325 24.7917 29.1663C24.7917 29.5531 24.9454 29.924 25.2189 30.1975C25.4924 30.471 25.8633 30.6247 26.2501 30.6247C26.6369 30.6247 27.0078 30.471 27.2813 30.1975C27.5548 29.924 27.7084 29.5531 27.7084 29.1663C27.7084 26.4589 26.6329 23.8624 24.7185 21.948C22.804 20.0335 20.2075 18.958 17.5001 18.958Z" fill="white"/>
</svg>
